<svg xmlns="http://www.w3.org/2000/svg" xmlns:xlink="http://www.w3.org/1999/xlink" xmlns:a="http://ns.adobe.com/AdobeSVGViewerExtensions/3.0/" version="1.1" x="0px" y="0px" width="100px" height="100px" viewBox="-26.175 0 100 100" enable-background="new -26.175 0 100 100" xml:space="preserve">
<defs>
</defs>
<path d="M23.823,9.53c-7.895,0-14.294,6.4-14.294,14.294c0,7.896,6.399,14.294,14.294,14.294c7.896,0,14.295-6.399,14.295-14.294  C38.118,15.93,31.718,9.53,23.823,9.53z M23.825,26.684c-1.58,0-2.859-1.28-2.859-2.859c0-1.579,1.279-2.859,2.859-2.859  c1.578,0,2.859,1.28,2.859,2.859C26.684,25.403,25.403,26.684,23.825,26.684z"/>
<path d="M23.825,0C10.667,0,0,10.667,0,23.824c0,13.989,21.886,65.576,23.823,75.76c1.918-10.112,23.826-64.959,23.826-75.76  C47.649,10.667,36.98,0,23.825,0z M23.825,42.884c-10.527,0-19.06-8.534-19.06-19.061c0-10.525,8.533-19.059,19.06-19.059  c10.525,0,19.059,8.534,19.059,19.059C42.883,34.35,34.35,42.884,23.825,42.884z"/>
</svg>