<?xml version="1.0" encoding="utf-8"?>
<!-- Generator: Adobe Illustrator 16.0.0, SVG Export Plug-In . SVG Version: 6.00 Build 0)  -->
<!DOCTYPE svg PUBLIC "-//W3C//DTD SVG 1.0//EN" "http://www.w3.org/TR/2001/REC-SVG-20010904/DTD/svg10.dtd">
<svg version="1.0" xmlns="http://www.w3.org/2000/svg" xmlns:xlink="http://www.w3.org/1999/xlink" x="0px" y="0px"
	 width="14.173px" height="22.927px" viewBox="0 0 14.173 22.927" enable-background="new 0 0 14.173 22.927" xml:space="preserve">
<g id="Ebene_1">
	<g>
		<path d="M7.086,3.104c-2.23,0-4.037,1.808-4.037,4.037c0,2.036,1.505,3.72,3.463,3.998V8.976c0,0-0.08,0.033-0.145,0.033
			c-0.066,0-0.726-0.183-0.843-1.045c0.294-0.118,0.399-0.438,0.36-0.581C5.981,7.428,6.371,7.39,6.512,7.42
			c0.169,0.038,0.312,0.151,0.312,0.151s0.19,0.164,0.229,1.274C7.125,7.8,7.511,7.369,8.647,7.264
			C8.059,7.068,8.053,6.905,8.041,6.677C7.812,7.362,7.503,7.513,7.204,7.506c-0.3-0.006-0.425-0.223-0.431-0.32
			C6.766,7.088,6.994,6.892,7.256,6.768C7.53,6.507,7.733,5.924,8.041,5.924c0.267,0,1.345,0.896,1.437,1.079
			C9.66,7.578,8.902,8.519,7.89,9.067c-0.237-0.02-0.343-0.022-0.386-0.02v2.111c2.035-0.209,3.621-1.928,3.621-4.017
			C11.124,4.912,9.315,3.104,7.086,3.104z M5.496,7.783c-0.207,0.085-0.475,0.035-0.71-0.74S4.726,6.031,4.96,5.979
			c0.235-0.052,0.392,0.087,0.536,0.785C5.64,7.461,5.697,7.7,5.496,7.783z M6.267,7.214C5.929,7.287,5.685,7.064,5.562,6.28
			C5.446,5.557,5.414,4.986,5.805,4.934C6.198,4.882,6.297,5.33,6.428,6.215c0.014,0.197,0.125,0.26,0.152,0.391
			C6.629,6.878,6.605,7.142,6.267,7.214z M7.041,6.556C6.671,6.564,6.569,6.47,6.56,5.255c0-0.963,0.325-0.957,0.481-0.954
			c0.157,0.004,0.447,0.163,0.45,0.583c0.004,0.417-0.052,0.604-0.048,0.718C7.445,5.716,7.608,6.543,7.041,6.556z M8.53,6.052
			C8.281,5.742,8.082,5.778,8.041,5.771C7.998,5.765,7.769,5.853,7.618,6.033C7.575,5.616,7.645,5.389,7.641,5.16
			C7.639,4.932,7.645,4.428,8.029,4.432C8.484,4.432,8.66,4.936,8.53,6.052z"/>
		<path d="M7.086,0C3.173,0,0,3.173,0,7.086c0,0.218,0.014,0.444,0.034,0.674c0.003,0.036,0.007,0.071,0.011,0.107
			c0.574,5.751,7.042,14.809,7.042,14.809s6.553-7.885,7.038-14.797c0.029-0.261,0.047-0.524,0.047-0.793C14.173,3.173,11,0,7.086,0
			z M7.503,12.156v1.609h1.859l-0.001,0.992H7.503v1.844H6.512v-1.844H4.654l0.001-0.992h1.857v-1.624
			c-2.508-0.286-4.457-2.414-4.457-4.999c0-2.778,2.251-5.03,5.03-5.03c2.778,0,5.031,2.252,5.031,5.03
			C12.117,9.78,10.088,11.942,7.503,12.156z"/>
	</g>
</g>
<g id="Tine" display="none">
	
		<path display="inline" fill="none" stroke="#000000" stroke-width="0.5" stroke-linecap="round" stroke-linejoin="round" stroke-miterlimit="10" d="
		M2.953,12.79c4.235,4.235,4.252,9.887,4.252,9.887s0-5.668,4.251-9.922"/>
</g>
</svg>
