<?xml version="1.0" encoding="utf-8"?>
<!-- Generator: Adobe Illustrator 16.0.0, SVG Export Plug-In . SVG Version: 6.00 Build 0)  -->
<!DOCTYPE svg PUBLIC "-//W3C//DTD SVG 1.0//EN" "http://www.w3.org/TR/2001/REC-SVG-20010904/DTD/svg10.dtd">
<svg version="1.0" xmlns="http://www.w3.org/2000/svg" xmlns:xlink="http://www.w3.org/1999/xlink" x="0px" y="0px"
	 width="14.173px" height="22.927px" viewBox="0 0 14.173 22.927" enable-background="new 0 0 14.173 22.927" xml:space="preserve">
<g id="Ebene_1">
	<g>
		<polygon points="5.942,6.598 6.798,5.116 5.942,3.633 4.23,3.633 3.374,5.115 4.23,6.598 		"/>
		<path d="M3.2,8.148c0.038,2.951,2.106,4.758,3.886,4.758c1.003,0,3.851-0.83,3.89-4.758C9.354,8.104,8.176,7.98,7.054,7.98
			C5.935,7.98,4.801,8.103,3.2,8.148z"/>
		<path d="M7.087,0C3.173,0,0,3.173,0,7.086c0,0.218,0.014,0.444,0.034,0.674c0.003,0.036,0.008,0.071,0.012,0.107
			c0.574,5.751,7.042,14.809,7.042,14.809s6.553-7.885,7.038-14.797c0.029-0.261,0.047-0.524,0.047-0.793C14.173,3.173,11,0,7.087,0
			z M12.098,8.165c-0.193,0-0.374-0.003-0.556-0.005c-0.043,3.927-2.745,5.313-4.456,5.313c-1.644,0-4.412-1.385-4.456-5.313
			C2.448,8.162,2.269,8.165,2.074,8.165c-0.284,0-0.761,0-0.761,0S1.781,7.05,1.986,6.68c0.309-0.561,0.196-1.093,0.259-1.891
			C2.354,3.41,2.729,2.066,7.054,2.066c4.439,0,4.732,1.371,4.841,2.75c0.062,0.798-0.035,1.298,0.275,1.86
			c0.203,0.37,0.688,1.49,0.688,1.49S12.382,8.165,12.098,8.165z"/>
	</g>
</g>
<g id="Tine" display="none">
	
		<path display="inline" fill="none" stroke="#000000" stroke-width="0.5" stroke-linecap="round" stroke-linejoin="round" stroke-miterlimit="10" d="
		M3.143,12.79c4.235,4.235,4.252,9.887,4.252,9.887s0-5.668,4.251-9.922"/>
</g>
</svg>
