<?xml version="1.0" encoding="utf-8"?>
<!-- Generator: Adobe Illustrator 16.0.0, SVG Export Plug-In . SVG Version: 6.00 Build 0)  -->
<!DOCTYPE svg PUBLIC "-//W3C//DTD SVG 1.1//EN" "http://www.w3.org/Graphics/SVG/1.1/DTD/svg11.dtd">
<svg version="1.1" id="Ebene_1" xmlns="http://www.w3.org/2000/svg" xmlns:xlink="http://www.w3.org/1999/xlink" x="0px" y="0px"
	 width="14.172px" height="22.928px" viewBox="0 0 14.172 22.928" enable-background="new 0 0 14.172 22.928" xml:space="preserve">
<path d="M7.086,0C3.173,0,0,3.173,0,7.086C0,7.304,0.014,7.53,0.034,7.76c0.003,0.035,0.007,0.07,0.011,0.106
	c0.574,5.751,7.042,14.809,7.042,14.809s6.553-7.885,7.039-14.797c0.028-0.261,0.047-0.523,0.047-0.793C14.172,3.173,11,0,7.086,0z"
	/>
<path fill="#FFFFFF" d="M7.503,12.156v1.609h1.859l-0.001,0.991H7.503v1.845H6.512v-1.845H4.654l0.001-0.991h1.857v-1.624
	c-2.508-0.286-4.457-2.414-4.457-4.999c0-2.778,2.251-5.03,5.03-5.03c2.778,0,5.031,2.252,5.031,5.03
	C12.118,9.78,10.088,11.942,7.503,12.156z"/>
<g id="Tine" display="none">
	
		<path display="inline" fill="none" stroke="#000000" stroke-width="0.5" stroke-linecap="round" stroke-linejoin="round" stroke-miterlimit="10" d="
		M2.953,12.79c4.235,4.235,4.252,9.888,4.252,9.888s0-5.669,4.25-9.923"/>
</g>
<path d="M7.086,3.104c-2.23,0-4.037,1.808-4.037,4.037c0,2.036,1.505,3.72,3.463,3.998V8.976c0,0-0.08,0.032-0.145,0.032
	c-0.066,0-0.726-0.183-0.843-1.045c0.294-0.117,0.399-0.438,0.36-0.581C5.981,7.428,6.371,7.39,6.512,7.42
	c0.169,0.038,0.312,0.151,0.312,0.151s0.19,0.164,0.229,1.274C7.125,7.8,7.511,7.369,8.647,7.264
	C8.059,7.068,8.053,6.905,8.042,6.677C7.812,7.362,7.503,7.513,7.204,7.506C6.904,7.5,6.779,7.283,6.773,7.186
	C6.766,7.088,6.994,6.892,7.256,6.768C7.53,6.507,7.733,5.924,8.042,5.924c0.267,0,1.345,0.896,1.437,1.079
	C9.661,7.578,8.902,8.519,7.89,9.067C7.653,9.047,7.547,9.045,7.504,9.047v2.111c2.036-0.209,3.622-1.928,3.622-4.017
	C11.124,4.912,9.315,3.104,7.086,3.104z"/>
<path fill="#FFFFFF" d="M5.496,7.783c-0.207,0.085-0.475,0.035-0.71-0.74C4.551,6.268,4.726,6.031,4.96,5.979
	c0.235-0.052,0.392,0.087,0.536,0.785C5.64,7.461,5.697,7.7,5.496,7.783z"/>
<path fill="#FFFFFF" d="M6.267,7.214C5.929,7.287,5.685,7.064,5.562,6.28C5.446,5.557,5.414,4.986,5.805,4.934
	c0.393-0.053,0.492,0.396,0.623,1.28C6.442,6.412,6.553,6.475,6.58,6.606C6.629,6.878,6.605,7.142,6.267,7.214z"/>
<path fill="#FFFFFF" d="M7.041,6.556C6.671,6.564,6.569,6.47,6.56,5.255c0-0.963,0.325-0.957,0.481-0.954
	c0.157,0.005,0.447,0.163,0.45,0.583c0.004,0.417-0.052,0.604-0.048,0.719C7.445,5.716,7.608,6.543,7.041,6.556z"/>
<path fill="#FFFFFF" d="M8.53,6.052C8.281,5.742,8.083,5.778,8.042,5.771C7.999,5.765,7.769,5.853,7.618,6.033
	C7.575,5.616,7.645,5.389,7.641,5.16C7.639,4.932,7.645,4.428,8.029,4.432C8.484,4.432,8.661,4.936,8.53,6.052z"/>
</svg>
